<?xml version="1.0" standalone="no"?>
<!DOCTYPE svg PUBLIC "-//W3C//DTD SVG 20010904//EN"
 "http://www.w3.org/TR/2001/REC-SVG-20010904/DTD/svg10.dtd">
<svg version="1.0" xmlns="http://www.w3.org/2000/svg"
 width="1350.000000pt" height="1350.000000pt" viewBox="0 0 1350.000000 1350.000000"
 preserveAspectRatio="xMidYMid meet">
<metadata>
Created by potrace 1.11, written by Peter Selinger 2001-2013
</metadata>
<g transform="translate(0.000000,1350.000000) scale(0.100000,-0.100000)"
fill="#000000" stroke="none">
<path d="M6419 13496 c-2 -2 -53 -7 -114 -10 -60 -4 -130 -9 -155 -11 -25 -3
-70 -7 -100 -10 -81 -8 -141 -15 -180 -21 -19 -3 -42 -6 -50 -6 -8 0 -37 -5
-65 -10 -27 -5 -63 -10 -80 -13 -37 -5 -84 -13 -155 -26 -30 -6 -66 -12 -80
-15 -14 -2 -77 -16 -140 -30 -63 -14 -122 -27 -130 -29 -241 -51 -737 -211
-965 -310 -16 -7 -70 -30 -120 -50 -116 -48 -579 -275 -628 -309 -21 -14 -41
-26 -44 -26 -11 0 -308 -183 -311 -192 -2 -4 -8 -8 -13 -8 -22 0 -473 -325
-614 -442 -273 -228 -554 -497 -744 -713 -30 -33 -68 -76 -85 -95 -17 -19 -61
-71 -96 -115 -36 -44 -71 -86 -78 -94 -70 -74 -374 -507 -479 -682 -26 -44
-56 -92 -65 -107 -10 -15 -21 -33 -25 -41 -3 -8 -31 -58 -61 -110 -74 -130
-248 -487 -315 -646 -60 -143 -167 -428 -167 -445 0 -6 -4 -18 -10 -28 -19
-36 -132 -417 -146 -496 -3 -16 -7 -32 -9 -36 -6 -9 -62 -263 -69 -314 -4 -21
-8 -41 -10 -45 -2 -3 -7 -28 -10 -56 -4 -27 -9 -57 -11 -65 -2 -8 -6 -31 -9
-50 -3 -19 -8 -53 -11 -75 -11 -71 -14 -89 -20 -135 -9 -69 -14 -120 -20 -185
-3 -33 -8 -74 -10 -91 -27 -195 -27 -959 -1 -1204 2 -19 7 -64 10 -100 4 -36
8 -76 10 -90 2 -14 7 -51 11 -84 4 -32 8 -68 10 -80 4 -25 13 -80 20 -133 13
-85 69 -366 96 -478 11 -44 22 -91 25 -105 14 -69 123 -424 179 -584 147 -418
343 -833 572 -1215 91 -151 250 -391 346 -521 64 -87 204 -268 217 -280 3 -3
27 -32 55 -65 209 -251 458 -507 695 -715 47 -41 87 -77 90 -80 4 -5 70 -60
165 -138 86 -71 369 -276 500 -363 246 -162 408 -257 675 -393 80 -41 192 -95
250 -121 58 -26 123 -55 145 -65 81 -36 324 -130 337 -130 8 0 18 -4 24 -9 17
-16 504 -169 595 -186 11 -2 29 -7 39 -10 10 -3 27 -7 37 -9 10 -2 38 -9 63
-16 25 -7 52 -13 60 -15 8 -2 83 -17 165 -33 83 -17 168 -33 190 -36 22 -4 65
-11 95 -16 57 -9 91 -14 175 -25 136 -17 217 -26 264 -30 229 -17 333 -20 616
-20 182 0 382 4 445 8 113 8 138 10 250 22 30 3 73 8 95 11 22 2 56 6 75 9 19
3 58 7 85 11 28 3 57 7 65 9 8 2 35 7 60 10 25 3 52 8 60 10 8 2 35 7 59 10
24 4 85 15 135 26 50 11 111 24 136 29 25 5 83 18 130 30 47 11 93 23 103 25
69 16 331 94 454 137 244 84 251 86 285 101 18 8 51 21 73 30 203 80 573 256
755 358 355 199 773 484 1020 695 14 12 63 54 110 94 155 132 402 369 570 549
487 522 953 1241 1238 1911 112 265 273 727 307 880 2 8 11 44 20 80 9 36 18
72 20 80 2 8 13 53 24 100 11 47 22 96 25 110 3 14 14 70 25 125 11 55 22 120
26 145 3 25 8 52 10 60 2 8 7 35 10 60 3 25 8 56 10 70 14 90 40 330 52 490
10 129 10 802 0 920 -5 52 -10 120 -13 150 -4 57 -13 137 -19 180 -2 14 -6 50
-10 81 -3 31 -7 65 -9 75 -2 11 -7 39 -10 64 -3 25 -8 56 -11 70 -3 14 -7 40
-10 57 -4 30 -13 85 -21 123 -41 209 -99 459 -124 536 -6 17 -12 40 -15 50 -7
35 -83 278 -118 379 -188 536 -449 1057 -763 1525 -85 127 -286 406 -303 420
-3 3 -33 39 -65 80 -33 41 -73 91 -90 111 -293 339 -541 582 -892 875 -227
188 -673 496 -904 622 -30 16 -83 46 -118 66 -149 84 -398 203 -697 331 -383
165 -976 331 -1460 409 -16 3 -43 7 -60 10 -16 3 -50 8 -75 11 -25 3 -56 8
-70 10 -14 2 -53 7 -87 10 -34 3 -70 7 -80 9 -17 3 -130 14 -248 23 -63 5
-792 13 -796 9z"/>
</g>
</svg>
